<mxfile host="app.diagrams.net" agent="Mozilla/5.0 (Macintosh; Intel Mac OS X 10_15_7) AppleWebKit/537.36 (KHTML, like Gecko) Chrome/131.0.0.0 Safari/537.36" version="26.0.5">
  <diagram name="Trang-1" id="kf2-nTfbASphxEgU4ZCY">
    <mxGraphModel dx="2308" dy="1378" grid="0" gridSize="10" guides="1" tooltips="1" connect="1" arrows="1" fold="1" page="0" pageScale="1" pageWidth="827" pageHeight="1169" math="0" shadow="0">
      <root>
        <mxCell id="0" />
        <mxCell id="1" parent="0" />
        <mxCell id="RpAtfASJvs7jnmNaCR3v-1" value="NHOM_SAN_PHAM" style="rounded=0;whiteSpace=wrap;html=1;" vertex="1" parent="1">
          <mxGeometry x="-9" y="138" width="120" height="60" as="geometry" />
        </mxCell>
        <mxCell id="RpAtfASJvs7jnmNaCR3v-2" value="" style="endArrow=none;html=1;rounded=0;fontSize=12;startSize=8;endSize=8;curved=1;exitX=0.75;exitY=0;exitDx=0;exitDy=0;" edge="1" parent="1" source="RpAtfASJvs7jnmNaCR3v-1">
          <mxGeometry width="50" height="50" relative="1" as="geometry">
            <mxPoint x="163" y="140" as="sourcePoint" />
            <mxPoint x="158" y="65" as="targetPoint" />
            <Array as="points">
              <mxPoint x="108" y="101" />
            </Array>
          </mxGeometry>
        </mxCell>
        <mxCell id="RpAtfASJvs7jnmNaCR3v-3" value="&lt;u&gt;MANHOM&lt;/u&gt;" style="ellipse;whiteSpace=wrap;html=1;" vertex="1" parent="1">
          <mxGeometry x="142" y="17" width="120" height="61" as="geometry" />
        </mxCell>
        <mxCell id="RpAtfASJvs7jnmNaCR3v-4" value="" style="endArrow=none;html=1;rounded=0;fontSize=12;startSize=8;endSize=8;curved=1;" edge="1" parent="1">
          <mxGeometry width="50" height="50" relative="1" as="geometry">
            <mxPoint x="18" y="140" as="sourcePoint" />
            <mxPoint x="1" y="81" as="targetPoint" />
          </mxGeometry>
        </mxCell>
        <mxCell id="RpAtfASJvs7jnmNaCR3v-5" value="TENNHOM" style="ellipse;whiteSpace=wrap;html=1;" vertex="1" parent="1">
          <mxGeometry x="-56" y="20" width="120" height="61" as="geometry" />
        </mxCell>
        <mxCell id="RpAtfASJvs7jnmNaCR3v-10" value="SAN_PHAM" style="rounded=0;whiteSpace=wrap;html=1;" vertex="1" parent="1">
          <mxGeometry x="413" y="145" width="120" height="60" as="geometry" />
        </mxCell>
        <mxCell id="RpAtfASJvs7jnmNaCR3v-11" value="" style="endArrow=none;html=1;rounded=0;fontSize=12;startSize=8;endSize=8;curved=1;" edge="1" parent="1">
          <mxGeometry width="50" height="50" relative="1" as="geometry">
            <mxPoint x="487" y="145" as="sourcePoint" />
            <mxPoint x="537" y="95" as="targetPoint" />
          </mxGeometry>
        </mxCell>
        <mxCell id="RpAtfASJvs7jnmNaCR3v-12" value="&lt;u&gt;MASP&lt;/u&gt;" style="ellipse;whiteSpace=wrap;html=1;" vertex="1" parent="1">
          <mxGeometry x="497" y="39" width="120" height="61" as="geometry" />
        </mxCell>
        <mxCell id="RpAtfASJvs7jnmNaCR3v-13" value="" style="endArrow=none;html=1;rounded=0;fontSize=12;startSize=8;endSize=8;curved=1;" edge="1" parent="1" target="RpAtfASJvs7jnmNaCR3v-14">
          <mxGeometry width="50" height="50" relative="1" as="geometry">
            <mxPoint x="531" y="205" as="sourcePoint" />
            <mxPoint x="581" y="155" as="targetPoint" />
            <Array as="points">
              <mxPoint x="561" y="183" />
            </Array>
          </mxGeometry>
        </mxCell>
        <mxCell id="RpAtfASJvs7jnmNaCR3v-14" value="TENSP" style="ellipse;whiteSpace=wrap;html=1;" vertex="1" parent="1">
          <mxGeometry x="569" y="119" width="120" height="61" as="geometry" />
        </mxCell>
        <mxCell id="RpAtfASJvs7jnmNaCR3v-16" value="MOTA" style="ellipse;whiteSpace=wrap;html=1;" vertex="1" parent="1">
          <mxGeometry x="573" y="221" width="120" height="61" as="geometry" />
        </mxCell>
        <mxCell id="RpAtfASJvs7jnmNaCR3v-19" value="" style="endArrow=none;html=1;rounded=0;fontSize=12;startSize=8;endSize=8;curved=1;" edge="1" parent="1">
          <mxGeometry width="50" height="50" relative="1" as="geometry">
            <mxPoint x="580" y="233" as="sourcePoint" />
            <mxPoint x="535" y="205" as="targetPoint" />
          </mxGeometry>
        </mxCell>
        <mxCell id="RpAtfASJvs7jnmNaCR3v-20" value="" style="endArrow=none;html=1;rounded=0;fontSize=12;startSize=8;endSize=8;curved=1;" edge="1" parent="1" target="RpAtfASJvs7jnmNaCR3v-21">
          <mxGeometry width="50" height="50" relative="1" as="geometry">
            <mxPoint x="499" y="203" as="sourcePoint" />
            <mxPoint x="502" y="207" as="targetPoint" />
            <Array as="points">
              <mxPoint x="499" y="203" />
            </Array>
          </mxGeometry>
        </mxCell>
        <mxCell id="RpAtfASJvs7jnmNaCR3v-21" value="DONVITINH" style="ellipse;whiteSpace=wrap;html=1;" vertex="1" parent="1">
          <mxGeometry x="482" y="264" width="120" height="80" as="geometry" />
        </mxCell>
        <mxCell id="RpAtfASJvs7jnmNaCR3v-22" value="" style="endArrow=none;html=1;rounded=0;fontSize=12;startSize=8;endSize=8;curved=1;exitX=0.2;exitY=0.967;exitDx=0;exitDy=0;exitPerimeter=0;" edge="1" parent="1" source="RpAtfASJvs7jnmNaCR3v-10" target="RpAtfASJvs7jnmNaCR3v-23">
          <mxGeometry width="50" height="50" relative="1" as="geometry">
            <mxPoint x="424" y="255" as="sourcePoint" />
            <mxPoint x="474" y="205" as="targetPoint" />
          </mxGeometry>
        </mxCell>
        <mxCell id="RpAtfASJvs7jnmNaCR3v-23" value="GIAMUA" style="ellipse;whiteSpace=wrap;html=1;" vertex="1" parent="1">
          <mxGeometry x="351" y="270" width="120" height="80" as="geometry" />
        </mxCell>
        <mxCell id="RpAtfASJvs7jnmNaCR3v-24" value="" style="endArrow=none;html=1;rounded=0;fontSize=12;startSize=8;endSize=8;curved=1;exitX=0;exitY=1;exitDx=0;exitDy=0;" edge="1" parent="1" source="RpAtfASJvs7jnmNaCR3v-10" target="RpAtfASJvs7jnmNaCR3v-25">
          <mxGeometry width="50" height="50" relative="1" as="geometry">
            <mxPoint x="363" y="250" as="sourcePoint" />
            <mxPoint x="413" y="200" as="targetPoint" />
          </mxGeometry>
        </mxCell>
        <mxCell id="RpAtfASJvs7jnmNaCR3v-25" value="SLTON" style="ellipse;whiteSpace=wrap;html=1;" vertex="1" parent="1">
          <mxGeometry x="239" y="225" width="120" height="80" as="geometry" />
        </mxCell>
        <mxCell id="RpAtfASJvs7jnmNaCR3v-26" value="NHA_CUNG_CAP" style="rounded=0;whiteSpace=wrap;html=1;" vertex="1" parent="1">
          <mxGeometry x="97" y="457" width="120" height="60" as="geometry" />
        </mxCell>
        <mxCell id="RpAtfASJvs7jnmNaCR3v-27" value="" style="endArrow=none;html=1;rounded=0;fontSize=12;startSize=8;endSize=8;curved=1;exitX=1;exitY=0.5;exitDx=0;exitDy=0;" edge="1" parent="1" source="RpAtfASJvs7jnmNaCR3v-28">
          <mxGeometry width="50" height="50" relative="1" as="geometry">
            <mxPoint x="365" y="391" as="sourcePoint" />
            <mxPoint x="302" y="430" as="targetPoint" />
            <Array as="points">
              <mxPoint x="390" y="370" />
            </Array>
          </mxGeometry>
        </mxCell>
        <mxCell id="RpAtfASJvs7jnmNaCR3v-29" value="" style="endArrow=none;html=1;rounded=0;fontSize=12;startSize=8;endSize=8;curved=1;exitX=1;exitY=0.5;exitDx=0;exitDy=0;" edge="1" parent="1" source="RpAtfASJvs7jnmNaCR3v-26" target="RpAtfASJvs7jnmNaCR3v-28">
          <mxGeometry width="50" height="50" relative="1" as="geometry">
            <mxPoint x="217" y="487" as="sourcePoint" />
            <mxPoint x="302" y="430" as="targetPoint" />
            <Array as="points" />
          </mxGeometry>
        </mxCell>
        <mxCell id="RpAtfASJvs7jnmNaCR3v-28" value="&lt;u&gt;MANCC&lt;/u&gt;" style="ellipse;whiteSpace=wrap;html=1;" vertex="1" parent="1">
          <mxGeometry x="262" y="375" width="120" height="80" as="geometry" />
        </mxCell>
        <mxCell id="RpAtfASJvs7jnmNaCR3v-31" value="" style="endArrow=none;html=1;rounded=0;fontSize=12;startSize=8;endSize=8;curved=1;entryX=1;entryY=1;entryDx=0;entryDy=0;" edge="1" parent="1" target="RpAtfASJvs7jnmNaCR3v-26">
          <mxGeometry width="50" height="50" relative="1" as="geometry">
            <mxPoint x="301" y="550" as="sourcePoint" />
            <mxPoint x="415" y="341" as="targetPoint" />
            <Array as="points" />
          </mxGeometry>
        </mxCell>
        <mxCell id="RpAtfASJvs7jnmNaCR3v-32" value="TENNCC" style="ellipse;whiteSpace=wrap;html=1;" vertex="1" parent="1">
          <mxGeometry x="275" y="487" width="120" height="80" as="geometry" />
        </mxCell>
        <mxCell id="RpAtfASJvs7jnmNaCR3v-34" value="" style="endArrow=none;html=1;rounded=0;fontSize=12;startSize=8;endSize=8;curved=1;entryX=0.5;entryY=0;entryDx=0;entryDy=0;exitX=0.75;exitY=1;exitDx=0;exitDy=0;" edge="1" parent="1" source="RpAtfASJvs7jnmNaCR3v-26" target="RpAtfASJvs7jnmNaCR3v-35">
          <mxGeometry width="50" height="50" relative="1" as="geometry">
            <mxPoint x="204" y="572" as="sourcePoint" />
            <mxPoint x="167" y="519" as="targetPoint" />
            <Array as="points" />
          </mxGeometry>
        </mxCell>
        <mxCell id="RpAtfASJvs7jnmNaCR3v-35" value="DIACHI" style="ellipse;whiteSpace=wrap;html=1;" vertex="1" parent="1">
          <mxGeometry x="175" y="588" width="120" height="80" as="geometry" />
        </mxCell>
        <mxCell id="RpAtfASJvs7jnmNaCR3v-37" value="" style="endArrow=none;html=1;rounded=0;fontSize=12;startSize=8;endSize=8;curved=1;exitX=0.75;exitY=1;exitDx=0;exitDy=0;" edge="1" parent="1" target="RpAtfASJvs7jnmNaCR3v-38">
          <mxGeometry width="50" height="50" relative="1" as="geometry">
            <mxPoint x="111" y="517" as="sourcePoint" />
            <mxPoint x="84" y="615" as="targetPoint" />
            <Array as="points" />
          </mxGeometry>
        </mxCell>
        <mxCell id="RpAtfASJvs7jnmNaCR3v-38" value="PHONE" style="ellipse;whiteSpace=wrap;html=1;" vertex="1" parent="1">
          <mxGeometry x="24.000000000000114" y="575" width="120" height="80" as="geometry" />
        </mxCell>
        <mxCell id="RpAtfASJvs7jnmNaCR3v-39" value="" style="endArrow=none;html=1;rounded=0;fontSize=12;startSize=8;endSize=8;curved=1;entryX=0.5;entryY=0;entryDx=0;entryDy=0;exitX=0;exitY=0.75;exitDx=0;exitDy=0;" edge="1" parent="1" source="RpAtfASJvs7jnmNaCR3v-26" target="RpAtfASJvs7jnmNaCR3v-40">
          <mxGeometry width="50" height="50" relative="1" as="geometry">
            <mxPoint x="18" y="518" as="sourcePoint" />
            <mxPoint x="95.5" y="511" as="targetPoint" />
            <Array as="points" />
          </mxGeometry>
        </mxCell>
        <mxCell id="RpAtfASJvs7jnmNaCR3v-40" value="SOFAX" style="ellipse;whiteSpace=wrap;html=1;" vertex="1" parent="1">
          <mxGeometry x="-88.00000000000011" y="503" width="120" height="80" as="geometry" />
        </mxCell>
        <mxCell id="RpAtfASJvs7jnmNaCR3v-42" value="" style="endArrow=none;html=1;rounded=0;fontSize=12;startSize=8;endSize=8;curved=1;entryX=0.5;entryY=0;entryDx=0;entryDy=0;exitX=0;exitY=0.5;exitDx=0;exitDy=0;" edge="1" parent="1" source="RpAtfASJvs7jnmNaCR3v-26" target="RpAtfASJvs7jnmNaCR3v-43">
          <mxGeometry width="50" height="50" relative="1" as="geometry">
            <mxPoint x="12" y="432" as="sourcePoint" />
            <mxPoint x="94" y="490" as="targetPoint" />
            <Array as="points" />
          </mxGeometry>
        </mxCell>
        <mxCell id="RpAtfASJvs7jnmNaCR3v-43" value="DCMAIL" style="ellipse;whiteSpace=wrap;html=1;" vertex="1" parent="1">
          <mxGeometry x="-86" y="355" width="120" height="80" as="geometry" />
        </mxCell>
        <mxCell id="RpAtfASJvs7jnmNaCR3v-44" value="KHACH_HANG" style="rounded=0;whiteSpace=wrap;html=1;" vertex="1" parent="1">
          <mxGeometry x="713" y="337" width="120" height="60" as="geometry" />
        </mxCell>
        <mxCell id="RpAtfASJvs7jnmNaCR3v-47" value="&lt;u&gt;MAKH&lt;/u&gt;" style="ellipse;whiteSpace=wrap;html=1;" vertex="1" parent="1">
          <mxGeometry x="906" y="366" width="120" height="80" as="geometry" />
        </mxCell>
        <mxCell id="RpAtfASJvs7jnmNaCR3v-65" value="HOA_DON" style="rounded=0;whiteSpace=wrap;html=1;" vertex="1" parent="1">
          <mxGeometry x="280" y="891" width="120" height="60" as="geometry" />
        </mxCell>
        <mxCell id="RpAtfASJvs7jnmNaCR3v-67" value="" style="endArrow=none;html=1;rounded=0;fontSize=12;startSize=8;endSize=8;curved=1;exitX=0;exitY=0.25;exitDx=0;exitDy=0;" edge="1" parent="1" source="RpAtfASJvs7jnmNaCR3v-65" target="RpAtfASJvs7jnmNaCR3v-68">
          <mxGeometry width="50" height="50" relative="1" as="geometry">
            <mxPoint x="296" y="900" as="sourcePoint" />
            <mxPoint x="175" y="907" as="targetPoint" />
          </mxGeometry>
        </mxCell>
        <mxCell id="RpAtfASJvs7jnmNaCR3v-68" value="&lt;u&gt;SOHĐ&lt;span style=&quot;color: rgba(0, 0, 0, 0); font-family: monospace; font-size: 0px; text-align: start; text-wrap-mode: nowrap;&quot;&gt;%3CmxGraphModel%3E%3Croot%3E%3CmxCell%20id%3D%220%22%2F%3E%3CmxCell%20id%3D%221%22%20parent%3D%220%22%2F%3E%3CmxCell%20id%3D%222%22%20value%3D%22%22%20style%3D%22endArrow%3Dnone%3Bhtml%3D1%3Brounded%3D0%3BfontSize%3D12%3BstartSize%3D8%3BendSize%3D8%3Bcurved%3D1%3BexitX%3D1%3BexitY%3D0.5%3BexitDx%3D0%3BexitDy%3D0%3B%22%20edge%3D%221%22%20parent%3D%221%22%3E%3CmxGeometry%20width%3D%2250%22%20height%3D%2250%22%20relative%3D%221%22%20as%3D%22geometry%22%3E%3CmxPoint%20x%3D%22758%22%20y%3D%22525%22%20as%3D%22sourcePoint%22%2F%3E%3CmxPoint%20x%3D%22861%22%20y%3D%22515%22%20as%3D%22targetPoint%22%2F%3E%3C%2FmxGeometry%3E%3C%2FmxCell%3E%3C%2Froot%3E%3C%2FmxGraphModel%3Edd&lt;/span&gt;&lt;/u&gt;" style="ellipse;whiteSpace=wrap;html=1;" vertex="1" parent="1">
          <mxGeometry x="101" y="871" width="120" height="80" as="geometry" />
        </mxCell>
        <mxCell id="RpAtfASJvs7jnmNaCR3v-69" value="" style="endArrow=none;html=1;rounded=0;fontSize=12;startSize=8;endSize=8;curved=1;exitX=0;exitY=1;exitDx=0;exitDy=0;" edge="1" parent="1" source="RpAtfASJvs7jnmNaCR3v-65" target="RpAtfASJvs7jnmNaCR3v-70">
          <mxGeometry width="50" height="50" relative="1" as="geometry">
            <mxPoint x="290" y="916" as="sourcePoint" />
            <mxPoint x="212" y="989" as="targetPoint" />
          </mxGeometry>
        </mxCell>
        <mxCell id="RpAtfASJvs7jnmNaCR3v-70" value="MAKH" style="ellipse;whiteSpace=wrap;html=1;" vertex="1" parent="1">
          <mxGeometry x="129" y="958" width="120" height="80" as="geometry" />
        </mxCell>
        <mxCell id="RpAtfASJvs7jnmNaCR3v-71" value="" style="endArrow=none;html=1;rounded=0;fontSize=12;startSize=8;endSize=8;curved=1;" edge="1" parent="1" target="RpAtfASJvs7jnmNaCR3v-72">
          <mxGeometry width="50" height="50" relative="1" as="geometry">
            <mxPoint x="318" y="953" as="sourcePoint" />
            <mxPoint x="292" y="1007" as="targetPoint" />
          </mxGeometry>
        </mxCell>
        <mxCell id="RpAtfASJvs7jnmNaCR3v-72" value="NGAYLAPHĐ" style="ellipse;whiteSpace=wrap;html=1;" vertex="1" parent="1">
          <mxGeometry x="257" y="1001" width="120" height="80" as="geometry" />
        </mxCell>
        <mxCell id="RpAtfASJvs7jnmNaCR3v-73" value="" style="endArrow=none;html=1;rounded=0;fontSize=12;startSize=8;endSize=8;curved=1;" edge="1" parent="1" target="RpAtfASJvs7jnmNaCR3v-74">
          <mxGeometry width="50" height="50" relative="1" as="geometry">
            <mxPoint x="364" y="953" as="sourcePoint" />
            <mxPoint x="413" y="999" as="targetPoint" />
          </mxGeometry>
        </mxCell>
        <mxCell id="RpAtfASJvs7jnmNaCR3v-74" value="NGAYGIAO&lt;span style=&quot;color: rgba(0, 0, 0, 0); font-family: monospace; font-size: 0px; text-align: start; text-wrap-mode: nowrap;&quot;&gt;%3CmxGraphModel%3E%3Croot%3E%3CmxCell%20id%3D%220%22%2F%3E%3CmxCell%20id%3D%221%22%20parent%3D%220%22%2F%3E%3CmxCell%20id%3D%222%22%20value%3D%22%22%20style%3D%22endArrow%3Dnone%3Bhtml%3D1%3Brounded%3D0%3BfontSize%3D12%3BstartSize%3D8%3BendSize%3D8%3Bcurved%3D1%3B%22%20edge%3D%221%22%20parent%3D%221%22%3E%3CmxGeometry%20width%3D%2250%22%20height%3D%2250%22%20relative%3D%221%22%20as%3D%22geometry%22%3E%3CmxPoint%20x%3D%22318%22%20y%3D%22953%22%20as%3D%22sourcePoint%22%2F%3E%3CmxPoint%20x%3D%22317%22%20y%3D%221001%22%20as%3D%22targetPoint%22%2F%3E%3C%2FmxGeometry%3E%3C%2FmxCell%3E%3C%2Froot%3E%3C%2FmxGraphModel%3E&lt;/span&gt;" style="ellipse;whiteSpace=wrap;html=1;" vertex="1" parent="1">
          <mxGeometry x="398" y="993" width="120" height="80" as="geometry" />
        </mxCell>
        <mxCell id="RpAtfASJvs7jnmNaCR3v-75" value="" style="endArrow=none;html=1;rounded=0;fontSize=12;startSize=8;endSize=8;curved=1;exitX=1;exitY=0.75;exitDx=0;exitDy=0;" edge="1" parent="1" source="RpAtfASJvs7jnmNaCR3v-65" target="RpAtfASJvs7jnmNaCR3v-76">
          <mxGeometry width="50" height="50" relative="1" as="geometry">
            <mxPoint x="338" y="973" as="sourcePoint" />
            <mxPoint x="484" y="944" as="targetPoint" />
          </mxGeometry>
        </mxCell>
        <mxCell id="RpAtfASJvs7jnmNaCR3v-76" value="NOICHUYEN" style="ellipse;whiteSpace=wrap;html=1;" vertex="1" parent="1">
          <mxGeometry x="448.9999999999998" y="919" width="120" height="80" as="geometry" />
        </mxCell>
        <mxCell id="RpAtfASJvs7jnmNaCR3v-77" value="&lt;span style=&quot;color: rgba(0, 0, 0, 0); font-family: monospace; font-size: 0px; text-align: start;&quot;&gt;%3CmxGraphModel%3E%3Croot%3E%3CmxCell%20id%3D%220%22%2F%3E%3CmxCell%20id%3D%221%22%20parent%3D%220%22%2F%3E%3CmxCell%20id%3D%222%22%20value%3D%22HOA_DON%22%20style%3D%22rounded%3D0%3BwhiteSpace%3Dwrap%3Bhtml%3D1%3B%22%20vertex%3D%221%22%20parent%3D%221%22%3E%3CmxGeometry%20x%3D%22280%22%20y%3D%22891%22%20width%3D%22120%22%20height%3D%2260%22%20as%3D%22geometry%22%2F%3E%3C%2FmxCell%3E%3CmxCell%20id%3D%223%22%20value%3D%22%22%20style%3D%22endArrow%3Dnone%3Bhtml%3D1%3Brounded%3D0%3BfontSize%3D12%3BstartSize%3D8%3BendSize%3D8%3Bcurved%3D1%3BexitX%3D0%3BexitY%3D0.25%3BexitDx%3D0%3BexitDy%3D0%3B%22%20edge%3D%221%22%20source%3D%222%22%20target%3D%224%22%20parent%3D%221%22%3E%3CmxGeometry%20width%3D%2250%22%20height%3D%2250%22%20relative%3D%221%22%20as%3D%22geometry%22%3E%3CmxPoint%20x%3D%22296%22%20y%3D%22900%22%20as%3D%22sourcePoint%22%2F%3E%3CmxPoint%20x%3D%22175%22%20y%3D%22907%22%20as%3D%22targetPoint%22%2F%3E%3C%2FmxGeometry%3E%3C%2FmxCell%3E%3CmxCell%20id%3D%224%22%20value%3D%22SOH%C4%90%26lt%3Bspan%20style%3D%26quot%3Bcolor%3A%20rgba(0%2C%200%2C%200%2C%200)%3B%20font-family%3A%20monospace%3B%20font-size%3A%200px%3B%20text-align%3A%20start%3B%20text-wrap-mode%3A%20nowrap%3B%26quot%3B%26gt%3B%253CmxGraphModel%253E%253Croot%253E%253CmxCell%2520id%253D%25220%2522%252F%253E%253CmxCell%2520id%253D%25221%2522%2520parent%253D%25220%2522%252F%253E%253CmxCell%2520id%253D%25222%2522%2520value%253D%2522%2522%2520style%253D%2522endArrow%253Dnone%253Bhtml%253D1%253Brounded%253D0%253BfontSize%253D12%253BstartSize%253D8%253BendSize%253D8%253Bcurved%253D1%253BexitX%253D1%253BexitY%253D0.5%253BexitDx%253D0%253BexitDy%253D0%253B%2522%2520edge%253D%25221%2522%2520parent%253D%25221%2522%253E%253CmxGeometry%2520width%253D%252250%2522%2520height%253D%252250%2522%2520relative%253D%25221%2522%2520as%253D%2522geometry%2522%253E%253CmxPoint%2520x%253D%2522758%2522%2520y%253D%2522525%2522%2520as%253D%2522sourcePoint%2522%252F%253E%253CmxPoint%2520x%253D%2522861%2522%2520y%253D%2522515%2522%2520as%253D%2522targetPoint%2522%252F%253E%253C%252FmxGeometry%253E%253C%252FmxCell%253E%253C%252Froot%253E%253C%252FmxGraphModel%253Edd%26lt%3B%2Fspan%26gt%3B%22%20style%3D%22ellipse%3BwhiteSpace%3Dwrap%3Bhtml%3D1%3B%22%20vertex%3D%221%22%20parent%3D%221%22%3E%3CmxGeometry%20x%3D%22101%22%20y%3D%22871%22%20width%3D%22120%22%20height%3D%2280%22%20as%3D%22geometry%22%2F%3E%3C%2FmxCell%3E%3CmxCell%20id%3D%225%22%20value%3D%22%22%20style%3D%22endArrow%3Dnone%3Bhtml%3D1%3Brounded%3D0%3BfontSize%3D12%3BstartSize%3D8%3BendSize%3D8%3Bcurved%3D1%3BexitX%3D0%3BexitY%3D1%3BexitDx%3D0%3BexitDy%3D0%3B%22%20edge%3D%221%22%20source%3D%222%22%20target%3D%226%22%20parent%3D%221%22%3E%3CmxGeometry%20width%3D%2250%22%20height%3D%2250%22%20relative%3D%221%22%20as%3D%22geometry%22%3E%3CmxPoint%20x%3D%22290%22%20y%3D%22916%22%20as%3D%22sourcePoint%22%2F%3E%3CmxPoint%20x%3D%22212%22%20y%3D%22989%22%20as%3D%22targetPoint%22%2F%3E%3C%2FmxGeometry%3E%3C%2FmxCell%3E%3CmxCell%20id%3D%226%22%20value%3D%22MAKH%22%20style%3D%22ellipse%3BwhiteSpace%3Dwrap%3Bhtml%3D1%3B%22%20vertex%3D%221%22%20parent%3D%221%22%3E%3CmxGeometry%20x%3D%22129%22%20y%3D%22958%22%20width%3D%22120%22%20height%3D%2280%22%20as%3D%22geometry%22%2F%3E%3C%2FmxCell%3E%3CmxCell%20id%3D%227%22%20value%3D%22%22%20style%3D%22endArrow%3Dnone%3Bhtml%3D1%3Brounded%3D0%3BfontSize%3D12%3BstartSize%3D8%3BendSize%3D8%3Bcurved%3D1%3B%22%20edge%3D%221%22%20target%3D%228%22%20parent%3D%221%22%3E%3CmxGeometry%20width%3D%2250%22%20height%3D%2250%22%20relative%3D%221%22%20as%3D%22geometry%22%3E%3CmxPoint%20x%3D%22318%22%20y%3D%22953%22%20as%3D%22sourcePoint%22%2F%3E%3CmxPoint%20x%3D%22292%22%20y%3D%221007%22%20as%3D%22targetPoint%22%2F%3E%3C%2FmxGeometry%3E%3C%2FmxCell%3E%3CmxCell%20id%3D%228%22%20value%3D%22NGAYLAPH%C4%90%22%20style%3D%22ellipse%3BwhiteSpace%3Dwrap%3Bhtml%3D1%3B%22%20vertex%3D%221%22%20parent%3D%221%22%3E%3CmxGeometry%20x%3D%22257%22%20y%3D%221001%22%20width%3D%22120%22%20height%3D%2280%22%20as%3D%22geometry%22%2F%3E%3C%2FmxCell%3E%3CmxCell%20id%3D%229%22%20value%3D%22%22%20style%3D%22endArrow%3Dnone%3Bhtml%3D1%3Brounded%3D0%3BfontSize%3D12%3BstartSize%3D8%3BendSize%3D8%3Bcurved%3D1%3B%22%20edge%3D%221%22%20target%3D%2210%22%20parent%3D%221%22%3E%3CmxGeometry%20width%3D%2250%22%20height%3D%2250%22%20relative%3D%221%22%20as%3D%22geometry%22%3E%3CmxPoint%20x%3D%22364%22%20y%3D%22953%22%20as%3D%22sourcePoint%22%2F%3E%3CmxPoint%20x%3D%22413%22%20y%3D%22999%22%20as%3D%22targetPoint%22%2F%3E%3C%2FmxGeometry%3E%3C%2FmxCell%3E%3CmxCell%20id%3D%2210%22%20value%3D%22NGAYGIAO%26lt%3Bspan%20style%3D%26quot%3Bcolor%3A%20rgba(0%2C%200%2C%200%2C%200)%3B%20font-family%3A%20monospace%3B%20font-size%3A%200px%3B%20text-align%3A%20start%3B%20text-wrap-mode%3A%20nowrap%3B%26quot%3B%26gt%3B%253CmxGraphModel%253E%253Croot%253E%253CmxCell%2520id%253D%25220%2522%252F%253E%253CmxCell%2520id%253D%25221%2522%2520parent%253D%25220%2522%252F%253E%253CmxCell%2520id%253D%25222%2522%2520value%253D%2522%2522%2520style%253D%2522endArrow%253Dnone%253Bhtml%253D1%253Brounded%253D0%253BfontSize%253D12%253BstartSize%253D8%253BendSize%253D8%253Bcurved%253D1%253B%2522%2520edge%253D%25221%2522%2520parent%253D%25221%2522%253E%253CmxGeometry%2520width%253D%252250%2522%2520height%253D%252250%2522%2520relative%253D%25221%2522%2520as%253D%2522geometry%2522%253E%253CmxPoint%2520x%253D%2522318%2522%2520y%253D%2522953%2522%2520as%253D%2522sourcePoint%2522%252F%253E%253CmxPoint%2520x%253D%2522317%2522%2520y%253D%25221001%2522%2520as%253D%2522targetPoint%2522%252F%253E%253C%252FmxGeometry%253E%253C%252FmxCell%253E%253C%252Froot%253E%253C%252FmxGraphModel%253E%26lt%3B%2Fspan%26gt%3B%22%20style%3D%22ellipse%3BwhiteSpace%3Dwrap%3Bhtml%3D1%3B%22%20vertex%3D%221%22%20parent%3D%221%22%3E%3CmxGeometry%20x%3D%22398%22%20y%3D%22993%22%20width%3D%22120%22%20height%3D%2280%22%20as%3D%22geometry%22%2F%3E%3C%2FmxCell%3E%3CmxCell%20id%3D%2211%22%20value%3D%22%22%20style%3D%22endArrow%3Dnone%3Bhtml%3D1%3Brounded%3D0%3BfontSize%3D12%3BstartSize%3D8%3BendSize%3D8%3Bcurved%3D1%3BexitX%3D1%3BexitY%3D0.75%3BexitDx%3D0%3BexitDy%3D0%3B%22%20edge%3D%221%22%20source%3D%222%22%20target%3D%2212%22%20parent%3D%221%22%3E%3CmxGeometry%20width%3D%2250%22%20height%3D%2250%22%20relative%3D%221%22%20as%3D%22geometry%22%3E%3CmxPoint%20x%3D%22338%22%20y%3D%22973%22%20as%3D%22sourcePoint%22%2F%3E%3CmxPoint%20x%3D%22484%22%20y%3D%22944%22%20as%3D%22targetPoint%22%2F%3E%3C%2FmxGeometry%3E%3C%2FmxCell%3E%3CmxCell%20id%3D%2212%22%20value%3D%22NOICHUYEN%22%20style%3D%22ellipse%3BwhiteSpace%3Dwrap%3Bhtml%3D1%3B%22%20vertex%3D%221%22%20parent%3D%221%22%3E%3CmxGeometry%20x%3D%22457.9999999999998%22%20y%3D%22904%22%20width%3D%22120%22%20height%3D%2280%22%20as%3D%22geometry%22%2F%3E%3C%2FmxCell%3E%3C%2Froot%3E%3C%2FmxGraphModel%3E&lt;/span&gt;" style="text;html=1;align=center;verticalAlign=middle;resizable=0;points=[];autosize=1;strokeColor=none;fillColor=none;fontSize=16;" vertex="1" parent="1">
          <mxGeometry x="896.5" y="42.5" width="18" height="31" as="geometry" />
        </mxCell>
        <mxCell id="RpAtfASJvs7jnmNaCR3v-94" style="edgeStyle=none;curved=1;rounded=0;orthogonalLoop=1;jettySize=auto;html=1;fontSize=12;startSize=8;endSize=8;" edge="1" parent="1" source="RpAtfASJvs7jnmNaCR3v-92">
          <mxGeometry relative="1" as="geometry">
            <mxPoint x="968" y="926" as="targetPoint" />
          </mxGeometry>
        </mxCell>
        <mxCell id="RpAtfASJvs7jnmNaCR3v-92" value="" style="rounded=0;whiteSpace=wrap;html=1;" vertex="1" parent="1">
          <mxGeometry x="845.5" y="896" width="164.5" height="104" as="geometry" />
        </mxCell>
        <mxCell id="RpAtfASJvs7jnmNaCR3v-93" value="CHI_TIET_SAN_PHAM" style="rhombus;whiteSpace=wrap;html=1;" vertex="1" parent="1">
          <mxGeometry x="843" y="895" width="164" height="104" as="geometry" />
        </mxCell>
        <mxCell id="RpAtfASJvs7jnmNaCR3v-95" value="" style="endArrow=none;html=1;rounded=0;fontSize=12;startSize=8;endSize=8;curved=1;entryX=0;entryY=0.5;entryDx=0;entryDy=0;" edge="1" parent="1" target="RpAtfASJvs7jnmNaCR3v-93">
          <mxGeometry width="50" height="50" relative="1" as="geometry">
            <mxPoint x="402" y="892" as="sourcePoint" />
            <mxPoint x="683" y="847" as="targetPoint" />
          </mxGeometry>
        </mxCell>
        <mxCell id="RpAtfASJvs7jnmNaCR3v-97" value="" style="endArrow=none;html=1;rounded=0;fontSize=12;startSize=8;endSize=8;curved=1;" edge="1" parent="1">
          <mxGeometry width="50" height="50" relative="1" as="geometry">
            <mxPoint x="1002" y="922" as="sourcePoint" />
            <mxPoint x="527" y="202" as="targetPoint" />
            <Array as="points">
              <mxPoint x="1246" y="864" />
              <mxPoint x="1386" y="558" />
              <mxPoint x="1496" y="452" />
              <mxPoint x="1520" y="360" />
              <mxPoint x="1524" y="304" />
              <mxPoint x="1452" y="274" />
              <mxPoint x="1326" y="500" />
              <mxPoint x="982" y="248" />
            </Array>
          </mxGeometry>
        </mxCell>
        <mxCell id="RpAtfASJvs7jnmNaCR3v-98" value="" style="endArrow=none;html=1;rounded=0;fontSize=12;startSize=8;endSize=8;curved=1;entryX=0;entryY=1;entryDx=0;entryDy=0;" edge="1" parent="1" target="RpAtfASJvs7jnmNaCR3v-92">
          <mxGeometry width="50" height="50" relative="1" as="geometry">
            <mxPoint x="792" y="1094" as="sourcePoint" />
            <mxPoint x="741" y="1081" as="targetPoint" />
          </mxGeometry>
        </mxCell>
        <mxCell id="RpAtfASJvs7jnmNaCR3v-99" value="SOLUONG" style="ellipse;whiteSpace=wrap;html=1;" vertex="1" parent="1">
          <mxGeometry x="723" y="1090" width="120" height="80" as="geometry" />
        </mxCell>
        <mxCell id="RpAtfASJvs7jnmNaCR3v-100" value="" style="endArrow=none;html=1;rounded=0;fontSize=12;startSize=8;endSize=8;curved=1;entryX=0.5;entryY=1;entryDx=0;entryDy=0;" edge="1" parent="1" target="RpAtfASJvs7jnmNaCR3v-92">
          <mxGeometry width="50" height="50" relative="1" as="geometry">
            <mxPoint x="920" y="1100" as="sourcePoint" />
            <mxPoint x="741" y="1323" as="targetPoint" />
          </mxGeometry>
        </mxCell>
        <mxCell id="RpAtfASJvs7jnmNaCR3v-101" value="DONGIA" style="ellipse;whiteSpace=wrap;html=1;" vertex="1" parent="1">
          <mxGeometry x="869" y="1098" width="120" height="80" as="geometry" />
        </mxCell>
        <mxCell id="RpAtfASJvs7jnmNaCR3v-103" value="" style="endArrow=none;html=1;rounded=0;fontSize=12;startSize=8;endSize=8;curved=1;entryX=0.891;entryY=1.019;entryDx=0;entryDy=0;entryPerimeter=0;" edge="1" parent="1" target="RpAtfASJvs7jnmNaCR3v-92">
          <mxGeometry width="50" height="50" relative="1" as="geometry">
            <mxPoint x="1074" y="1102" as="sourcePoint" />
            <mxPoint x="741" y="1323" as="targetPoint" />
          </mxGeometry>
        </mxCell>
        <mxCell id="RpAtfASJvs7jnmNaCR3v-104" value="THANHTIEN" style="ellipse;whiteSpace=wrap;html=1;" vertex="1" parent="1">
          <mxGeometry x="1026" y="1102" width="120" height="80" as="geometry" />
        </mxCell>
        <mxCell id="RpAtfASJvs7jnmNaCR3v-107" value="" style="endArrow=none;html=1;rounded=0;fontSize=12;startSize=8;endSize=8;curved=1;exitX=1;exitY=0.5;exitDx=0;exitDy=0;" edge="1" parent="1" source="RpAtfASJvs7jnmNaCR3v-1" target="RpAtfASJvs7jnmNaCR3v-108">
          <mxGeometry width="50" height="50" relative="1" as="geometry">
            <mxPoint x="327" y="604" as="sourcePoint" />
            <mxPoint x="258" y="149" as="targetPoint" />
          </mxGeometry>
        </mxCell>
        <mxCell id="RpAtfASJvs7jnmNaCR3v-108" value="BAO_GOM" style="rhombus;whiteSpace=wrap;html=1;" vertex="1" parent="1">
          <mxGeometry x="228" y="62" width="104" height="118" as="geometry" />
        </mxCell>
        <mxCell id="RpAtfASJvs7jnmNaCR3v-109" value="" style="endArrow=none;html=1;rounded=0;fontSize=12;startSize=8;endSize=8;curved=1;exitX=1;exitY=0.5;exitDx=0;exitDy=0;entryX=0;entryY=0.5;entryDx=0;entryDy=0;" edge="1" parent="1" source="RpAtfASJvs7jnmNaCR3v-108" target="RpAtfASJvs7jnmNaCR3v-10">
          <mxGeometry width="50" height="50" relative="1" as="geometry">
            <mxPoint x="327" y="604" as="sourcePoint" />
            <mxPoint x="377" y="554" as="targetPoint" />
          </mxGeometry>
        </mxCell>
        <mxCell id="RpAtfASJvs7jnmNaCR3v-111" value="(1, n)" style="text;html=1;align=center;verticalAlign=middle;whiteSpace=wrap;rounded=0;fontSize=16;" vertex="1" parent="1">
          <mxGeometry x="170" y="94" width="60" height="30" as="geometry" />
        </mxCell>
        <mxCell id="RpAtfASJvs7jnmNaCR3v-112" value="(1, 1)" style="text;html=1;align=center;verticalAlign=middle;whiteSpace=wrap;rounded=0;fontSize=16;" vertex="1" parent="1">
          <mxGeometry x="332" y="89" width="60" height="30" as="geometry" />
        </mxCell>
        <mxCell id="RpAtfASJvs7jnmNaCR3v-113" value="CUNG_CAP" style="rhombus;whiteSpace=wrap;html=1;" vertex="1" parent="1">
          <mxGeometry x="72" y="250" width="98" height="94" as="geometry" />
        </mxCell>
        <mxCell id="RpAtfASJvs7jnmNaCR3v-114" value="" style="endArrow=none;html=1;rounded=0;fontSize=12;startSize=8;endSize=8;curved=1;entryX=0;entryY=0.75;entryDx=0;entryDy=0;exitX=0.5;exitY=0;exitDx=0;exitDy=0;" edge="1" parent="1" source="RpAtfASJvs7jnmNaCR3v-113" target="RpAtfASJvs7jnmNaCR3v-10">
          <mxGeometry width="50" height="50" relative="1" as="geometry">
            <mxPoint x="401" y="620" as="sourcePoint" />
            <mxPoint x="451" y="570" as="targetPoint" />
            <Array as="points">
              <mxPoint x="244" y="190" />
            </Array>
          </mxGeometry>
        </mxCell>
        <mxCell id="RpAtfASJvs7jnmNaCR3v-115" value="" style="endArrow=none;html=1;rounded=0;fontSize=12;startSize=8;endSize=8;curved=1;entryX=0.5;entryY=1;entryDx=0;entryDy=0;exitX=0.5;exitY=0;exitDx=0;exitDy=0;" edge="1" parent="1" source="RpAtfASJvs7jnmNaCR3v-26" target="RpAtfASJvs7jnmNaCR3v-113">
          <mxGeometry width="50" height="50" relative="1" as="geometry">
            <mxPoint x="401" y="620" as="sourcePoint" />
            <mxPoint x="451" y="570" as="targetPoint" />
          </mxGeometry>
        </mxCell>
        <mxCell id="RpAtfASJvs7jnmNaCR3v-116" value="(1, 1)" style="text;html=1;align=center;verticalAlign=middle;whiteSpace=wrap;rounded=0;fontSize=16;" vertex="1" parent="1">
          <mxGeometry x="131" y="202" width="60" height="30" as="geometry" />
        </mxCell>
        <mxCell id="RpAtfASJvs7jnmNaCR3v-117" value="(1, n)" style="text;html=1;align=center;verticalAlign=middle;whiteSpace=wrap;rounded=0;fontSize=16;" vertex="1" parent="1">
          <mxGeometry x="134" y="340" width="60" height="30" as="geometry" />
        </mxCell>
        <mxCell id="RpAtfASJvs7jnmNaCR3v-118" value="" style="endArrow=none;html=1;rounded=0;fontSize=12;startSize=8;endSize=8;curved=1;entryX=1;entryY=1;entryDx=0;entryDy=0;exitX=0;exitY=0.5;exitDx=0;exitDy=0;" edge="1" parent="1" source="RpAtfASJvs7jnmNaCR3v-47" target="RpAtfASJvs7jnmNaCR3v-44">
          <mxGeometry width="50" height="50" relative="1" as="geometry">
            <mxPoint x="489" y="796" as="sourcePoint" />
            <mxPoint x="539" y="746" as="targetPoint" />
          </mxGeometry>
        </mxCell>
        <mxCell id="RpAtfASJvs7jnmNaCR3v-125" value="" style="endArrow=none;html=1;rounded=0;fontSize=12;startSize=8;endSize=8;curved=1;" edge="1" parent="1">
          <mxGeometry width="50" height="50" relative="1" as="geometry">
            <mxPoint x="760" y="479" as="sourcePoint" />
            <mxPoint x="760" y="397" as="targetPoint" />
          </mxGeometry>
        </mxCell>
        <mxCell id="RpAtfASJvs7jnmNaCR3v-126" value="" style="endArrow=none;html=1;rounded=0;fontSize=12;startSize=8;endSize=8;curved=1;" edge="1" parent="1">
          <mxGeometry width="50" height="50" relative="1" as="geometry">
            <mxPoint x="782" y="477" as="sourcePoint" />
            <mxPoint x="782" y="397" as="targetPoint" />
          </mxGeometry>
        </mxCell>
        <mxCell id="RpAtfASJvs7jnmNaCR3v-127" value="d" style="ellipse;whiteSpace=wrap;html=1;aspect=fixed;" vertex="1" parent="1">
          <mxGeometry x="741" y="471" width="56" height="56" as="geometry" />
        </mxCell>
        <mxCell id="RpAtfASJvs7jnmNaCR3v-128" value="" style="endArrow=none;html=1;rounded=0;fontSize=12;startSize=8;endSize=8;curved=1;entryX=1;entryY=1;entryDx=0;entryDy=0;exitX=0.05;exitY=0.275;exitDx=0;exitDy=0;exitPerimeter=0;" edge="1" parent="1" source="RpAtfASJvs7jnmNaCR3v-129" target="RpAtfASJvs7jnmNaCR3v-127">
          <mxGeometry width="50" height="50" relative="1" as="geometry">
            <mxPoint x="882" y="595" as="sourcePoint" />
            <mxPoint x="611" y="664" as="targetPoint" />
          </mxGeometry>
        </mxCell>
        <mxCell id="RpAtfASJvs7jnmNaCR3v-129" value="VL" style="ellipse;whiteSpace=wrap;html=1;" vertex="1" parent="1">
          <mxGeometry x="902" y="519" width="120" height="80" as="geometry" />
        </mxCell>
        <mxCell id="RpAtfASJvs7jnmNaCR3v-130" value="" style="endArrow=none;html=1;rounded=0;fontSize=12;startSize=8;endSize=8;curved=1;entryX=0;entryY=0.5;entryDx=0;entryDy=0;exitX=0.5;exitY=0;exitDx=0;exitDy=0;" edge="1" parent="1" source="RpAtfASJvs7jnmNaCR3v-131" target="RpAtfASJvs7jnmNaCR3v-127">
          <mxGeometry width="50" height="50" relative="1" as="geometry">
            <mxPoint x="676" y="617" as="sourcePoint" />
            <mxPoint x="583" y="541" as="targetPoint" />
          </mxGeometry>
        </mxCell>
        <mxCell id="RpAtfASJvs7jnmNaCR3v-131" value="VIP" style="ellipse;whiteSpace=wrap;html=1;" vertex="1" parent="1">
          <mxGeometry x="530" y="535" width="148" height="78" as="geometry" />
        </mxCell>
        <mxCell id="RpAtfASJvs7jnmNaCR3v-132" value="" style="endArrow=none;html=1;rounded=0;fontSize=12;startSize=8;endSize=8;curved=1;entryX=0.5;entryY=1;entryDx=0;entryDy=0;" edge="1" parent="1" target="RpAtfASJvs7jnmNaCR3v-127">
          <mxGeometry width="50" height="50" relative="1" as="geometry">
            <mxPoint x="769" y="585" as="sourcePoint" />
            <mxPoint x="611" y="664" as="targetPoint" />
          </mxGeometry>
        </mxCell>
        <mxCell id="RpAtfASJvs7jnmNaCR3v-133" value="TV" style="ellipse;whiteSpace=wrap;html=1;" vertex="1" parent="1">
          <mxGeometry x="704" y="583" width="156" height="66" as="geometry" />
        </mxCell>
        <mxCell id="RpAtfASJvs7jnmNaCR3v-134" value="" style="endArrow=none;html=1;rounded=0;fontSize=12;startSize=8;endSize=8;curved=1;entryX=0;entryY=1;entryDx=0;entryDy=0;exitX=1;exitY=0.5;exitDx=0;exitDy=0;" edge="1" parent="1" source="RpAtfASJvs7jnmNaCR3v-135" target="RpAtfASJvs7jnmNaCR3v-131">
          <mxGeometry width="50" height="50" relative="1" as="geometry">
            <mxPoint x="498" y="655" as="sourcePoint" />
            <mxPoint x="577" y="664" as="targetPoint" />
          </mxGeometry>
        </mxCell>
        <mxCell id="RpAtfASJvs7jnmNaCR3v-135" value="HOTEN" style="ellipse;whiteSpace=wrap;html=1;" vertex="1" parent="1">
          <mxGeometry x="382" y="547" width="106" height="66" as="geometry" />
        </mxCell>
        <mxCell id="RpAtfASJvs7jnmNaCR3v-136" value="" style="endArrow=none;html=1;rounded=0;fontSize=12;startSize=8;endSize=8;curved=1;entryX=0.324;entryY=0.897;entryDx=0;entryDy=0;exitX=0.692;exitY=0.067;exitDx=0;exitDy=0;exitPerimeter=0;entryPerimeter=0;" edge="1" parent="1" source="RpAtfASJvs7jnmNaCR3v-137" target="RpAtfASJvs7jnmNaCR3v-131">
          <mxGeometry width="50" height="50" relative="1" as="geometry">
            <mxPoint x="572" y="663" as="sourcePoint" />
            <mxPoint x="577" y="664" as="targetPoint" />
          </mxGeometry>
        </mxCell>
        <mxCell id="RpAtfASJvs7jnmNaCR3v-137" value="DIACHI" style="ellipse;whiteSpace=wrap;html=1;" vertex="1" parent="1">
          <mxGeometry x="349" y="625" width="120" height="60" as="geometry" />
        </mxCell>
        <mxCell id="RpAtfASJvs7jnmNaCR3v-138" value="" style="endArrow=none;html=1;rounded=0;fontSize=12;startSize=8;endSize=8;curved=1;entryX=0.5;entryY=1;entryDx=0;entryDy=0;" edge="1" parent="1" target="RpAtfASJvs7jnmNaCR3v-131">
          <mxGeometry width="50" height="50" relative="1" as="geometry">
            <mxPoint x="554" y="677" as="sourcePoint" />
            <mxPoint x="577" y="664" as="targetPoint" />
          </mxGeometry>
        </mxCell>
        <mxCell id="RpAtfASJvs7jnmNaCR3v-139" value="DIENTHOAI" style="ellipse;whiteSpace=wrap;html=1;" vertex="1" parent="1">
          <mxGeometry x="453" y="672" width="120" height="60" as="geometry" />
        </mxCell>
        <mxCell id="RpAtfASJvs7jnmNaCR3v-140" value="" style="endArrow=none;html=1;rounded=0;fontSize=12;startSize=8;endSize=8;curved=1;entryX=0;entryY=0.5;entryDx=0;entryDy=0;" edge="1" parent="1" target="RpAtfASJvs7jnmNaCR3v-131">
          <mxGeometry width="50" height="50" relative="1" as="geometry">
            <mxPoint x="488" y="507" as="sourcePoint" />
            <mxPoint x="577" y="664" as="targetPoint" />
            <Array as="points" />
          </mxGeometry>
        </mxCell>
        <mxCell id="RpAtfASJvs7jnmNaCR3v-141" value="DCMAIL" style="ellipse;whiteSpace=wrap;html=1;" vertex="1" parent="1">
          <mxGeometry x="419" y="433" width="120" height="80" as="geometry" />
        </mxCell>
        <mxCell id="RpAtfASJvs7jnmNaCR3v-142" value="" style="endArrow=none;html=1;rounded=0;fontSize=12;startSize=8;endSize=8;curved=1;entryX=0.324;entryY=0.026;entryDx=0;entryDy=0;entryPerimeter=0;" edge="1" parent="1" target="RpAtfASJvs7jnmNaCR3v-131">
          <mxGeometry width="50" height="50" relative="1" as="geometry">
            <mxPoint x="578" y="475" as="sourcePoint" />
            <mxPoint x="577" y="664" as="targetPoint" />
          </mxGeometry>
        </mxCell>
        <mxCell id="RpAtfASJvs7jnmNaCR3v-143" value="DIEMTL" style="ellipse;whiteSpace=wrap;html=1;" vertex="1" parent="1">
          <mxGeometry x="530" y="400" width="120" height="80" as="geometry" />
        </mxCell>
        <mxCell id="RpAtfASJvs7jnmNaCR3v-144" value="" style="endArrow=none;html=1;rounded=0;fontSize=12;startSize=8;endSize=8;curved=1;entryX=0.5;entryY=1;entryDx=0;entryDy=0;exitX=0;exitY=0.5;exitDx=0;exitDy=0;" edge="1" parent="1" source="RpAtfASJvs7jnmNaCR3v-145">
          <mxGeometry width="50" height="50" relative="1" as="geometry">
            <mxPoint x="888" y="667" as="sourcePoint" />
            <mxPoint x="857" y="625" as="targetPoint" />
          </mxGeometry>
        </mxCell>
        <mxCell id="RpAtfASJvs7jnmNaCR3v-145" value="DIENTHOAI" style="ellipse;whiteSpace=wrap;html=1;" vertex="1" parent="1">
          <mxGeometry x="929" y="623" width="120" height="60" as="geometry" />
        </mxCell>
        <mxCell id="RpAtfASJvs7jnmNaCR3v-146" value="" style="endArrow=none;html=1;rounded=0;fontSize=12;startSize=8;endSize=8;curved=1;entryX=0.324;entryY=0.897;entryDx=0;entryDy=0;exitX=0.5;exitY=0;exitDx=0;exitDy=0;entryPerimeter=0;" edge="1" parent="1" source="RpAtfASJvs7jnmNaCR3v-147">
          <mxGeometry width="50" height="50" relative="1" as="geometry">
            <mxPoint x="808" y="701" as="sourcePoint" />
            <mxPoint x="814" y="643" as="targetPoint" />
          </mxGeometry>
        </mxCell>
        <mxCell id="RpAtfASJvs7jnmNaCR3v-147" value="DIACHI" style="ellipse;whiteSpace=wrap;html=1;" vertex="1" parent="1">
          <mxGeometry x="865" y="691" width="120" height="60" as="geometry" />
        </mxCell>
        <mxCell id="RpAtfASJvs7jnmNaCR3v-148" value="HOTEN" style="ellipse;whiteSpace=wrap;html=1;" vertex="1" parent="1">
          <mxGeometry x="787" y="738" width="106" height="66" as="geometry" />
        </mxCell>
        <mxCell id="RpAtfASJvs7jnmNaCR3v-149" value="" style="endArrow=none;html=1;rounded=0;fontSize=12;startSize=8;endSize=8;curved=1;entryX=0.5;entryY=1;entryDx=0;entryDy=0;exitX=0.5;exitY=0;exitDx=0;exitDy=0;" edge="1" parent="1" source="RpAtfASJvs7jnmNaCR3v-148" target="RpAtfASJvs7jnmNaCR3v-133">
          <mxGeometry width="50" height="50" relative="1" as="geometry">
            <mxPoint x="496" y="628" as="sourcePoint" />
            <mxPoint x="561" y="611" as="targetPoint" />
          </mxGeometry>
        </mxCell>
        <mxCell id="RpAtfASJvs7jnmNaCR3v-150" value="DCMAIL" style="ellipse;whiteSpace=wrap;html=1;" vertex="1" parent="1">
          <mxGeometry x="663" y="741" width="116" height="60" as="geometry" />
        </mxCell>
        <mxCell id="RpAtfASJvs7jnmNaCR3v-152" value="" style="endArrow=none;html=1;rounded=0;fontSize=12;startSize=8;endSize=8;curved=1;entryX=0.346;entryY=1;entryDx=0;entryDy=0;entryPerimeter=0;exitX=0.5;exitY=0;exitDx=0;exitDy=0;" edge="1" parent="1" source="RpAtfASJvs7jnmNaCR3v-150" target="RpAtfASJvs7jnmNaCR3v-133">
          <mxGeometry width="50" height="50" relative="1" as="geometry">
            <mxPoint x="555" y="746" as="sourcePoint" />
            <mxPoint x="605" y="696" as="targetPoint" />
          </mxGeometry>
        </mxCell>
        <mxCell id="RpAtfASJvs7jnmNaCR3v-153" value="" style="endArrow=none;html=1;rounded=0;fontSize=12;startSize=8;endSize=8;curved=1;entryX=0;entryY=1;entryDx=0;entryDy=0;" edge="1" parent="1" target="RpAtfASJvs7jnmNaCR3v-133">
          <mxGeometry width="50" height="50" relative="1" as="geometry">
            <mxPoint x="668" y="681" as="sourcePoint" />
            <mxPoint x="605" y="696" as="targetPoint" />
          </mxGeometry>
        </mxCell>
        <mxCell id="RpAtfASJvs7jnmNaCR3v-154" value="DIEMTL" style="ellipse;whiteSpace=wrap;html=1;" vertex="1" parent="1">
          <mxGeometry x="582" y="658" width="120" height="80" as="geometry" />
        </mxCell>
        <mxCell id="RpAtfASJvs7jnmNaCR3v-155" value="THUOC" style="rhombus;whiteSpace=wrap;html=1;" vertex="1" parent="1">
          <mxGeometry x="602" y="795" width="116" height="106" as="geometry" />
        </mxCell>
        <mxCell id="RpAtfASJvs7jnmNaCR3v-156" value="" style="endArrow=none;html=1;rounded=0;fontSize=12;startSize=8;endSize=8;curved=1;entryX=0.75;entryY=0;entryDx=0;entryDy=0;exitX=0;exitY=0.5;exitDx=0;exitDy=0;" edge="1" parent="1" source="RpAtfASJvs7jnmNaCR3v-155" target="RpAtfASJvs7jnmNaCR3v-65">
          <mxGeometry width="50" height="50" relative="1" as="geometry">
            <mxPoint x="591" y="686" as="sourcePoint" />
            <mxPoint x="641" y="636" as="targetPoint" />
          </mxGeometry>
        </mxCell>
        <mxCell id="RpAtfASJvs7jnmNaCR3v-157" value="" style="endArrow=none;html=1;rounded=0;fontSize=12;startSize=8;endSize=8;curved=1;entryX=1;entryY=0;entryDx=0;entryDy=0;exitX=1;exitY=0.5;exitDx=0;exitDy=0;" edge="1" parent="1">
          <mxGeometry width="50" height="50" relative="1" as="geometry">
            <mxPoint x="720" y="848" as="sourcePoint" />
            <mxPoint x="835" y="337" as="targetPoint" />
            <Array as="points">
              <mxPoint x="1858" y="489" />
            </Array>
          </mxGeometry>
        </mxCell>
        <mxCell id="RpAtfASJvs7jnmNaCR3v-158" value="(1, n)" style="text;html=1;align=center;verticalAlign=middle;whiteSpace=wrap;rounded=0;fontSize=16;" vertex="1" parent="1">
          <mxGeometry x="727" y="850" width="60" height="30" as="geometry" />
        </mxCell>
        <mxCell id="RpAtfASJvs7jnmNaCR3v-159" value="(1, 1)" style="text;html=1;align=center;verticalAlign=middle;whiteSpace=wrap;rounded=0;fontSize=16;" vertex="1" parent="1">
          <mxGeometry x="533" y="818" width="60" height="30" as="geometry" />
        </mxCell>
        <mxCell id="RpAtfASJvs7jnmNaCR3v-160" value="" style="endArrow=none;html=1;rounded=0;fontSize=12;startSize=8;endSize=8;curved=1;" edge="1" parent="1">
          <mxGeometry width="50" height="50" relative="1" as="geometry">
            <mxPoint x="712" y="529" as="sourcePoint" />
            <mxPoint x="698" y="489" as="targetPoint" />
            <Array as="points">
              <mxPoint x="654" y="535" />
            </Array>
          </mxGeometry>
        </mxCell>
        <mxCell id="RpAtfASJvs7jnmNaCR3v-161" value="" style="endArrow=none;html=1;rounded=0;fontSize=12;startSize=8;endSize=8;curved=1;" edge="1" parent="1">
          <mxGeometry width="50" height="50" relative="1" as="geometry">
            <mxPoint x="794" y="555" as="sourcePoint" />
            <mxPoint x="746" y="555" as="targetPoint" />
            <Array as="points">
              <mxPoint x="770" y="581" />
            </Array>
          </mxGeometry>
        </mxCell>
        <mxCell id="RpAtfASJvs7jnmNaCR3v-162" value="" style="endArrow=none;html=1;rounded=0;fontSize=12;startSize=8;endSize=8;curved=1;" edge="1" parent="1">
          <mxGeometry width="50" height="50" relative="1" as="geometry">
            <mxPoint x="878" y="507" as="sourcePoint" />
            <mxPoint x="840" y="551" as="targetPoint" />
            <Array as="points">
              <mxPoint x="898" y="545" />
            </Array>
          </mxGeometry>
        </mxCell>
        <mxCell id="RpAtfASJvs7jnmNaCR3v-163" value="(1, n)" style="text;html=1;align=center;verticalAlign=middle;whiteSpace=wrap;rounded=0;fontSize=16;" vertex="1" parent="1">
          <mxGeometry x="758" y="951" width="60" height="30" as="geometry" />
        </mxCell>
        <mxCell id="RpAtfASJvs7jnmNaCR3v-164" value="(1, n)" style="text;html=1;align=center;verticalAlign=middle;whiteSpace=wrap;rounded=0;fontSize=16;" vertex="1" parent="1">
          <mxGeometry x="1024" y="925" width="60" height="30" as="geometry" />
        </mxCell>
      </root>
    </mxGraphModel>
  </diagram>
</mxfile>
